<svg xmlns="http://www.w3.org/2000/svg" width="1200" height="630" viewBox="0 0 1200 630" role="img" aria-label="КредитРеабилитация — честное сравнение 4 путей восстановления кредитной истории для ипотеки">
  <defs>
    <linearGradient id="bg" x1="0" y1="0" x2="1" y2="1">
      <stop offset="0" stop-color="#1E3A8A"/><stop offset="1" stop-color="#0F2155"/>
    </linearGradient>
    <linearGradient id="hi" x1="0" y1="0" x2="1" y2="0">
      <stop offset="0" stop-color="#0EA5E9"/><stop offset="1" stop-color="#059669"/>
    </linearGradient>
  </defs>
  <rect width="1200" height="630" fill="url(#bg)"/>
  <g transform="translate(96,108)">
    <rect width="56" height="56" rx="14" fill="#0EA5E9"/>
    <path d="M14 38c4-9 9-13 14-13 3.5 0 5.6 2.3 7 5" stroke="#fff" stroke-width="4" stroke-linecap="round" fill="none"/>
    <text x="76" y="38" font-family="Lexend, Arial, sans-serif" font-size="34" font-weight="700" fill="#fff">КредитРеабилитация</text>
  </g>
  <text x="96" y="300" font-family="Lexend, Arial, sans-serif" font-size="58" font-weight="700" fill="#fff">4 дороги из плохой</text>
  <text x="96" y="368" font-family="Lexend, Arial, sans-serif" font-size="58" font-weight="700" fill="#7DD3FC">кредитной истории</text>
  <text x="96" y="438" font-family="IBM Plex Sans, Arial, sans-serif" font-size="30" fill="#CBD5E1">Честное сравнение по времени, деньгам и риску —</text>
  <text x="96" y="478" font-family="IBM Plex Sans, Arial, sans-serif" font-size="30" fill="#CBD5E1">движок может посоветовать НЕ нас. Без звонка.</text>
  <g transform="translate(820,210)" font-family="Lexend, Arial, sans-serif" font-weight="700">
    <g transform="translate(0,0)"><rect width="280" height="50" rx="10" fill="rgba(255,255,255,.10)"/><text x="18" y="33" font-size="22" fill="#94A3B8">1 · Ничего не делать</text></g>
    <g transform="translate(0,64)"><rect width="280" height="50" rx="10" fill="rgba(255,255,255,.10)"/><text x="18" y="33" font-size="22" fill="#CBD5E1">2 · Восстанавливать самому</text></g>
    <g transform="translate(0,128)"><rect width="280" height="50" rx="10" fill="rgba(255,255,255,.10)"/><text x="18" y="33" font-size="22" fill="#CBD5E1">3 · Банковские программы</text></g>
    <g transform="translate(0,192)"><rect width="280" height="50" rx="10" fill="url(#hi)"/><text x="18" y="33" font-size="22" fill="#fff">4 · КредитРеабилитация</text></g>
  </g>
</svg>
