<svg xmlns="http://www.w3.org/2000/svg" width="96" height="96" viewBox="0 0 96 96" role="img" aria-label="Анна, куратор сервиса КредитРеабилитация">
  <defs>
    <clipPath id="c"><circle cx="48" cy="48" r="48"/></clipPath>
    <linearGradient id="bg" x1="0" y1="0" x2="0" y2="1">
      <stop offset="0" stop-color="#E7ECF6"/>
      <stop offset="1" stop-color="#D5DEEE"/>
    </linearGradient>
  </defs>
  <g clip-path="url(#c)">
    <rect width="96" height="96" fill="url(#bg)"/>
    <!-- shoulders -->
    <path d="M14 96c0-17 15-27 34-27s34 10 34 27z" fill="#33415C"/>
    <path d="M20 96c2-12 13-20 28-20s26 8 28 20z" fill="#475569"/>
    <!-- neck -->
    <rect x="40" y="56" width="16" height="16" rx="6" fill="#E7C3A8"/>
    <!-- hair back -->
    <path d="M26 50c0-16 9-28 22-28s22 12 22 28c0 6-2 11-4 14-1-10-3-18-7-22-3 4-8 6-13 6-4 0-7-1-10-3-2 5-3 12-4 19-3-3-6-8-6-14z" fill="#3C2F26"/>
    <!-- face -->
    <ellipse cx="48" cy="46" rx="17" ry="19" fill="#EBC9AE"/>
    <!-- eyes -->
    <ellipse cx="41" cy="45" rx="2" ry="2.4" fill="#2A2018"/>
    <ellipse cx="55" cy="45" rx="2" ry="2.4" fill="#2A2018"/>
    <!-- brows -->
    <path d="M37 40q4-2.5 8 0" stroke="#3C2F26" stroke-width="1.6" fill="none" stroke-linecap="round"/>
    <path d="M51 40q4-2.5 8 0" stroke="#3C2F26" stroke-width="1.6" fill="none" stroke-linecap="round"/>
    <!-- nose -->
    <path d="M48 47v5l-2 1.5" stroke="#C99E7E" stroke-width="1.4" fill="none" stroke-linecap="round"/>
    <!-- calm mouth -->
    <path d="M43 57q5 3 10 0" stroke="#B5705B" stroke-width="1.8" fill="none" stroke-linecap="round"/>
    <!-- hair front -->
    <path d="M30 44c-1-15 8-25 18-25s19 9 18 24c-1-7-4-12-9-14-2 3-5 5-9 5-7 0-12-3-13-7-3 3-5 9-5 17z" fill="#332720"/>
  </g>
  <circle cx="48" cy="48" r="47" fill="none" stroke="#C7D2E5" stroke-width="2"/>
</svg>
